HIERARCHY
ROOT Hips
{
	OFFSET -3.958830 18.904000 13.208200
	CHANNELS 6 Xposition Yposition Zposition Zrotation Yrotation Xrotation 
	JOINT LHipJoint
	{
		OFFSET 0.000000 0.000000 0.000000
		CHANNELS 3 Zrotation Yrotation Xrotation
		JOINT LeftUpLeg
		{
			OFFSET 1.800000 -1.400000 0.085000
			CHANNELS 3 Zrotation Yrotation Xrotation
			JOINT LeftLeg
			{
				OFFSET 2.215000 -6.000000 0.000000
				CHANNELS 3 Zrotation Yrotation Xrotation
				JOINT LeftFoot
				{
					OFFSET 2.500000 -6.900000 0.000000
					CHANNELS 3 Zrotation Yrotation Xrotation
					JOINT LeftToeBase
					{
						OFFSET 0.200000 -0.500000 1.950000
						CHANNELS 3 Zrotation Yrotation Xrotation
						End Site
						{
							OFFSET 0.000000 0.000000 0.000000
						}
					}
				}
			}
		}
	}
	JOINT RHipJoint
	{
		OFFSET 0.000000 0.000000 0.000000
		CHANNELS 3 Zrotation Yrotation Xrotation
		JOINT RightUpLeg
		{
			OFFSET -1.800000 -1.400000 0.085000
			CHANNELS 3 Zrotation Yrotation Xrotation
			JOINT RightLeg
			{
				OFFSET -2.215000 -6.000000 0.000000
				CHANNELS 3 Zrotation Yrotation Xrotation
				JOINT RightFoot
				{
					OFFSET -2.500000 -6.900000 0.000000
					CHANNELS 3 Zrotation Yrotation Xrotation
					JOINT RightToeBase
					{
						OFFSET -0.200000 -0.500000 1.950000
						CHANNELS 3 Zrotation Yrotation Xrotation
						End Site
						{
							OFFSET 0.000000 0.000000 0.000000
						}
					}
				}
			}
		}
	}
	JOINT LowerBack
	{
		OFFSET 0.000000 0.000000 0.000000
		CHANNELS 3 Zrotation Yrotation Xrotation
		JOINT Spine
		{
			OFFSET -0.087000 1.940000 -0.288900
			CHANNELS 3 Zrotation Yrotation Xrotation
			JOINT Spine1
			{
				OFFSET 0.000000 1.950000 0.060000
				CHANNELS 3 Zrotation Yrotation Xrotation
				JOINT Neck
				{
					OFFSET 0.000000 0.000000 0.000000
					CHANNELS 3 Zrotation Yrotation Xrotation
					JOINT Neck1
					{
						OFFSET 0.000000 1.600000 0.340000
						CHANNELS 3 Zrotation Yrotation Xrotation
						JOINT Head
						{
							OFFSET 0.000000 1.667000 -0.240000
							CHANNELS 3 Zrotation Yrotation Xrotation
							End Site
							{
								OFFSET 0.000000 0.000000 0.000000
							}
						}
					}
				}
				JOINT LeftShoulder
				{
					OFFSET 0.000000 0.000000 0.000000
					CHANNELS 3 Zrotation Yrotation Xrotation
					JOINT LeftArm
					{
						OFFSET 2.700000 1.550000 -0.730000
						CHANNELS 3 Zrotation Yrotation Xrotation
						JOINT LeftForeArm
						{
							OFFSET 5.450000 0.000000 0.000000
							CHANNELS 3 Zrotation Yrotation Xrotation
							JOINT LeftHand
							{
								OFFSET 3.450000 0.000000 0.000000
								CHANNELS 3 Zrotation Yrotation Xrotation
								JOINT LeftHandIndex1
								{
									OFFSET 0.750000 0.000000 0.000000
									CHANNELS 3 Zrotation Yrotation Xrotation
									End Site
									{
										OFFSET 0.000000 0.000000 0.000000
									}
								}
							}
						}
					}
				}
				JOINT RightShoulder
				{
					OFFSET 0.000000 0.000000 0.000000
					CHANNELS 3 Zrotation Yrotation Xrotation
					JOINT RightArm
					{
						OFFSET -2.700000 1.550000 -0.730000
						CHANNELS 3 Zrotation Yrotation Xrotation
						JOINT RightForeArm
						{
							OFFSET -5.450000 0.000000 0.000000
							CHANNELS 3 Zrotation Yrotation Xrotation
							JOINT RightHand
							{
								OFFSET -3.450000 0.000000 0.000000
								CHANNELS 3 Zrotation Yrotation Xrotation
								JOINT RightHandIndex1
								{
									OFFSET -0.750000 0.000000 0.000000
									CHANNELS 3 Zrotation Yrotation Xrotation
									End Site
									{
										OFFSET 0.000000 0.000000 0.000000
									}
								}
							}
						}
					}
				}
			}
		}
	}
}
MOTION
Frames: 7
Frame Time: 0.016667
-0.692250 17.106500 -6.607810 -6.082376 14.001706 -8.629476 -15.225368 13.652675 2.410352 0.437931 -2.112447 -8.634168 9.353601 5.389138 51.566467 0.198303 8.344486 1.385619 1.227090 0.956950 1.039810 18.317585 -8.738185 5.581152 -4.906590 13.534824 -49.335860 11.177652 -8.314015 37.179073 -1.092251 -4.423247 2.508631 0.394140 -0.494960 0.316960 -3.761575 -3.463882 -8.908414 14.799003 -8.383467 41.387589 -4.676812 -2.333618 12.774220 3.292403 -3.159443 -22.676935 -15.405453 4.979958 60.913810 7.316570 -1.001560 -42.185500 -24.803673 -41.851799 10.239584 -37.333627 -39.211807 -0.541235 -7.621465 -25.659663 -0.303653 -2.712542 2.905021 1.270730 -0.631950 0.817230 0.202580 18.686216 44.842091 11.027265 43.239800 34.628797 -4.548458 1.237584 21.844749 -0.523973 2.049973 -1.078643 0.091720 0.302010 -0.361320 -0.287790 
-0.699250 17.092240 -6.593540 -6.150803 14.948522 -8.827375 -15.291381 13.659010 2.433251 0.810186 -2.982872 -8.439417 9.210871 5.215461 51.986516 0.223664 8.467972 1.373539 1.118010 0.812850 0.991660 18.275682 -8.593540 5.592639 -5.192699 12.980642 -50.696911 11.208030 -9.597734 41.155437 -1.173268 -5.274596 2.245816 0.322430 -0.448560 0.308720 -3.608254 -3.815743 -8.956405 14.010484 -8.218439 42.221861 -3.008644 -2.765662 11.384172 2.757510 -3.035645 -21.802486 -14.566076 4.551436 58.942340 6.157600 -0.560230 -39.956730 -23.752915 -41.286136 9.898231 -35.109994 -37.333903 -2.471498 -9.932804 -30.942395 0.375748 -2.693949 2.942624 1.240260 -0.580090 0.744490 0.166570 18.715456 43.685066 11.189468 43.157670 31.296851 -7.084916 2.347164 26.348541 -0.858061 1.982073 -1.107728 0.047130 0.277700 -0.310240 -0.310120 
-0.720320 17.080110 -6.545550 -5.051470 14.734301 -8.519460 -15.434278 13.628654 2.376200 0.830581 -3.159851 -7.183369 7.612159 6.144234 51.283724 0.272106 8.599400 1.410970 0.948640 0.586340 0.897530 18.211059 -8.157758 5.805978 -7.077930 13.383336 -53.335758 13.021399 -12.616851 48.833612 -1.429883 -7.144493 1.706034 0.214070 -0.326200 0.286460 -3.258519 -4.491653 -9.082995 11.377711 -6.318725 43.249523 0.154116 -2.541407 9.801735 2.066439 -3.633072 -19.756353 -14.931453 3.789470 54.734579 4.909440 -0.936550 -36.733520 -21.093961 -39.100076 8.777001 -32.823785 -35.968649 -4.956306 -11.630203 -41.046503 1.276729 -2.702334 3.009953 1.175460 -0.486010 0.607660 0.136590 17.731200 41.738990 11.437803 39.849562 26.674315 -9.742788 5.921243 32.696940 -0.444982 1.911434 -1.110797 -0.030610 0.284640 -0.228800 -0.319690 
-0.719520 17.100240 -6.478060 -4.951104 15.461737 -8.627977 -15.486936 13.566627 2.226843 0.603025 -3.233565 -5.676797 8.257857 5.567251 50.172027 0.363558 8.443731 1.538251 0.837590 0.470120 0.761610 18.229689 -7.855161 5.966594 -10.111955 12.831965 -55.185177 18.112028 -17.809810 54.812750 -1.831188 -9.320438 1.099892 0.140240 -0.222140 0.287930 -3.185595 -4.897737 -9.089340 11.128140 -6.664954 43.879197 1.486107 -3.523069 8.337913 1.412755 -5.156897 -17.321150 -17.288549 3.768466 48.947694 5.388310 -1.643620 -33.359860 -18.205955 -36.157190 7.499934 -29.046431 -34.067300 -7.325666 -12.408344 -52.841824 2.108398 -2.692056 3.230843 1.048800 -0.408230 0.493450 0.163130 16.227884 38.973482 11.213024 34.559846 21.905805 -11.857644 13.773259 41.056238 1.891563 1.909570 -1.232104 -0.026790 0.235000 -0.199510 -0.263220 
-0.731570 17.170060 -6.391380 -5.160486 16.652296 -8.836925 -15.528042 13.594538 2.068172 1.183323 -3.242964 -4.202136 8.859435 5.001492 48.618324 0.373156 8.275103 1.643026 0.693490 0.291590 0.635770 18.227155 -7.645188 6.054823 -11.799701 12.021416 -55.895642 22.250515 -22.644973 58.637939 -2.179422 -10.993569 0.672079 0.028520 -0.120990 0.324530 -3.113448 -5.290504 -9.067232 10.608244 -7.511982 44.454203 2.122029 -4.938611 7.444139 1.134149 -5.413229 -15.822178 -17.006630 3.982923 45.339191 5.028510 -1.023720 -30.717730 -14.294042 -34.025933 6.829711 -24.330298 -31.228588 -9.066614 -7.818963 -65.307514 -0.516466 -2.785870 3.348878 0.987320 -0.321180 0.396070 0.149520 12.770634 36.197609 11.013954 29.723404 18.290280 -13.642286 22.886182 52.807994 6.679479 1.889091 -1.374946 -0.044840 0.177190 -0.121190 -0.246950 
-0.708840 17.289600 -6.288970 -7.085725 17.391765 -9.377322 -15.462158 13.613079 1.790460 3.120870 -2.831477 -2.255730 9.438448 4.444960 45.315155 0.305509 7.850106 1.847559 0.563530 0.134090 0.520110 18.306705 -7.642945 6.105916 -11.879351 11.757907 -55.799868 25.920538 -26.990107 60.762170 -2.468026 -12.186252 0.402554 -0.055820 -0.030330 0.310020 -3.332162 -5.253346 -8.906396 13.778497 -10.414879 44.534798 0.915717 -7.074162 7.157037 1.338510 -6.707205 -14.696222 -18.628053 4.964017 41.390966 5.312170 -0.562270 -29.335880 -11.546364 -30.749179 6.611284 -20.332760 -26.027356 -10.299512 14.869505 -77.381399 -17.437415 -2.959050 3.065948 0.948680 -0.275380 0.306870 0.149460 9.547358 33.001307 10.469263 24.134699 15.964596 -13.362698 34.942235 62.908638 15.413809 1.945927 -1.499031 -0.093340 0.171810 -0.061770 -0.229990 
-0.681980 17.432780 -6.173690 -7.992628 17.263485 -9.551080 -15.447615 13.679032 1.656534 4.679710 -2.562048 -0.528158 8.416005 4.773977 42.202819 0.295765 7.527577 2.013620 0.445000 -0.012710 0.427760 18.324659 -7.601573 6.078220 -11.152826 11.501641 -55.666295 26.852611 -29.623972 63.052750 -2.650537 -12.961206 0.260467 -0.161740 0.034680 0.311460 -3.373738 -5.426769 -8.787668 15.302793 -12.206792 45.454994 0.524185 -8.514739 6.524869 1.584504 -7.759234 -13.955000 -20.154140 5.794486 38.348173 4.791760 0.204150 -29.148850 -10.026106 -26.701438 5.492888 -15.171133 -22.089653 -10.887643 73.925459 -77.839385 -59.530451 -3.057653 1.022457 0.918070 -0.242770 0.244760 0.143080 7.458176 29.406290 10.598019 17.119793 12.608585 -11.383684 55.638020 72.199718 32.327513 2.148426 -1.523562 -0.110930 0.151070 -0.013200 -0.212630 
